<svg width="136" height="30" viewBox="0 0 136 30" fill="none" xmlns="http://www.w3.org/2000/svg">
<path d="M38.5253 26.3561H34.1188V16.9217C34.1188 14.5908 33.2519 13.4253 31.5182 13.4253C30.2853 13.4253 29.3943 13.8443 28.8453 14.6823C28.2963 15.5203 28.0218 16.8784 28.0218 18.7566V20.9004C26.9317 18.6907 25.4342 16.7082 23.6152 15.058V3.87537H28.0218V8.45531C28.0218 8.81169 27.9881 9.64966 27.9207 10.9692L27.8195 12.2695H28.0507C29.0331 10.6899 30.5935 9.90009 32.7318 9.90009C34.6293 9.90009 36.0692 10.4106 37.0517 11.4316C38.0341 12.4525 38.5253 13.9166 38.5253 15.8237V26.3561Z" fill="#28356A"/>
<path fill-rule="evenodd" clip-rule="evenodd" d="M48.8314 26.6451C46.2308 26.6451 44.1985 25.9275 42.7345 24.4923C41.2704 23.0572 40.5384 21.0249 40.5384 18.3954C40.5384 15.6888 41.2126 13.5987 42.5611 12.125C43.9192 10.6417 45.7926 9.90009 48.1813 9.90009C50.464 9.90009 52.2411 10.5502 53.5125 11.8505C54.7839 13.1508 55.4196 14.9472 55.4196 17.2396V19.3778H45.0028C45.0509 20.63 45.4217 21.6076 46.1152 22.3107C46.8087 23.0138 47.7815 23.3654 49.0337 23.3654C50.0065 23.3654 50.9263 23.2643 51.7932 23.062C52.6601 22.8597 53.5655 22.5371 54.5094 22.094V25.5037C53.7388 25.889 52.9153 26.1731 52.0388 26.3561C51.1623 26.5487 50.0932 26.6451 48.8314 26.6451ZM48.2102 13.0353C47.2759 13.0353 46.5438 13.3338 46.0141 13.931C45.4843 14.5186 45.1809 15.3565 45.1039 16.4449H51.2875C51.2683 15.3565 50.9841 14.5186 50.4351 13.931C49.8861 13.3338 49.1444 13.0353 48.2102 13.0353Z" fill="#28356A"/>
<path d="M56.4791 18.3665C56.4791 23.8855 58.993 26.6451 64.0208 26.6451C65.1285 26.6451 66.0435 26.5584 66.7659 26.385C67.4979 26.2116 68.2203 25.8986 68.9331 25.4459V21.675C68.2107 22.1566 67.4883 22.513 66.7659 22.7442C66.0435 22.9657 65.2585 23.0765 64.4109 23.0765C62.1185 23.0765 60.9724 21.4968 60.9724 18.3376C60.9724 15.082 62.1185 13.4542 64.4109 13.4542C65.0081 13.4542 65.6053 13.5457 66.2024 13.7287C66.7996 13.9021 67.445 14.1285 68.1385 14.4078L69.4388 10.9981C67.9554 10.2661 66.2795 9.90009 64.4109 9.90009C61.8585 9.90009 59.8984 10.6273 58.5307 12.0817C57.163 13.5265 56.4791 15.6214 56.4791 18.3665Z" fill="#28356A"/>
<path d="M75.3816 17.5719L77.3032 15.1157L81.8253 10.2035H86.7953L80.3805 17.2107L87.1854 26.3561H82.0998L77.4476 19.8113L75.555 21.3283V26.3561H71.1484V3.87537H75.555V13.9021L75.3238 17.5719H75.3816Z" fill="#28356A"/>
<path fill-rule="evenodd" clip-rule="evenodd" d="M100.554 24.4201C101.941 22.9368 102.635 20.8804 102.635 18.2509C102.635 16.5557 102.317 15.0772 101.681 13.8154C101.046 12.5537 100.135 11.5857 98.9507 10.9114C97.766 10.2372 96.3983 9.90009 94.8476 9.90009C92.3529 9.90009 90.4169 10.6321 89.0396 12.0961C87.6622 13.5602 86.9735 15.6118 86.9735 18.2509C86.9735 19.9461 87.2914 21.4294 87.9271 22.7008C88.5628 23.9722 89.473 24.9499 90.6577 25.6337C91.8424 26.3079 93.2102 26.6451 94.7609 26.6451C97.2363 26.6451 99.1674 25.9034 100.554 24.4201ZM92.247 21.8773C91.7269 21.0586 91.4668 19.8498 91.4668 18.2509C91.4668 16.6424 91.7269 15.4432 92.247 14.6534C92.7671 13.854 93.6147 13.4542 94.7898 13.4542C95.9745 13.4542 96.8269 13.854 97.347 14.6534C97.8671 15.4528 98.1272 16.652 98.1272 18.2509C98.1272 19.8594 97.8671 21.073 97.347 21.8917C96.8365 22.7008 95.9938 23.1054 94.8187 23.1054C93.6339 23.1054 92.7767 22.696 92.247 21.8773Z" fill="#28356A"/>
<path d="M116.177 26.3561L115.585 24.2901H115.354C114.882 25.0414 114.212 25.6241 113.346 26.0382C112.479 26.4428 111.491 26.6451 110.384 26.6451C108.486 26.6451 107.056 26.1394 106.093 25.128C105.13 24.1071 104.648 22.643 104.648 20.7359V10.2035H109.055V19.6379C109.055 20.8033 109.262 21.6798 109.676 22.2674C110.09 22.8453 110.75 23.1342 111.655 23.1342C112.888 23.1342 113.779 22.7249 114.328 21.9062C114.877 21.0778 115.152 19.7101 115.152 17.803V10.2035H119.558V26.3561H116.177Z" fill="#28356A"/>
<path d="M132.219 22.6286C131.14 22.9657 130.216 23.1342 129.445 23.1342C128.867 23.1342 128.4 22.985 128.044 22.6864C127.697 22.3878 127.524 21.9254 127.524 21.2994V13.512H132.046V10.2035H127.524V6.76492H124.706L123.435 10.1746L121.008 11.6483V13.512H123.117V21.2994C123.117 23.0813 123.517 24.4201 124.316 25.3159C125.125 26.202 126.411 26.6451 128.174 26.6451C129.773 26.6451 131.121 26.3994 132.219 25.9082V22.6286Z" fill="#28356A"/>
<path d="M2.8457 9.04681C0.969401 12.801 0.969401 17.2194 2.8457 20.9736C5.10483 25.4937 9.72425 28.3492 14.7775 28.3492H19.8653L10.8608 15.2428C10.7645 15.1026 10.7645 14.9176 10.8608 14.7774L19.8653 1.67114L14.7775 1.67114C9.72425 1.67114 5.10483 4.52664 2.8457 9.04681Z" fill="url(#paint0_linear_70_9282)"/>
<path d="M7.57178 20.9736C5.69548 17.2194 5.69548 12.8011 7.57178 9.04687C9.8309 4.5267 14.4503 1.6712 19.5036 1.6712H24.5914L20.7216 12.9144C19.1298 11.9313 17.3789 11.1663 15.5056 10.6644L14.1023 10.2883L15.2321 15.814C16.3704 21.3813 20.5569 25.8274 26.0458 27.2982L29.9004 28.331L29.914 28.3493H19.5036C14.4503 28.3493 9.8309 25.4938 7.57178 20.9736Z" fill="url(#paint1_linear_70_9282)"/>
<path d="M14.8158 16.0388C15.9663 21.5868 20.1457 26.0146 25.621 27.4817L27.5897 28.0092L24.3019 28.3145C18.5523 28.8486 13.0284 26.0328 10.0984 21.0743L7.39746 16.5036C9.88618 15.7915 12.4094 15.6618 14.8158 16.0388Z" fill="#F9A000"/>
<path d="M14.7642 13.1312C16.7626 20.5085 22.5399 26.3176 29.9861 28.3181L29.9998 28.3662H26.5055C20.4851 28.3662 15.0481 24.7668 12.6968 19.2245L9.86279 12.5444C11.5425 12.5444 13.1852 12.7467 14.7642 13.1312Z" fill="#FD6020"/>
<defs>
<linearGradient id="paint0_linear_70_9282" x1="13.6323" y1="28.3493" x2="24.4707" y2="1.67113" gradientUnits="userSpaceOnUse">
<stop stop-color="#28356A"/>
<stop offset="1" stop-color="#0C7CFF"/>
</linearGradient>
<linearGradient id="paint1_linear_70_9282" x1="12.793" y1="4.75697" x2="24.6074" y2="16.1428" gradientUnits="userSpaceOnUse">
<stop stop-color="#2F88FF"/>
<stop offset="1" stop-color="#1D68CD"/>
</linearGradient>
</defs>
</svg>
